<svg width="24" height="22" viewBox="0 0 24 22" fill="none" xmlns="http://www.w3.org/2000/svg">
<path d="M0 1.15625C0 0.965626 0.08231 0.782809 0.228823 0.648017C0.375336 0.513225 0.57405 0.4375 0.78125 0.4375H3.125C3.29927 0.437544 3.46852 0.491192 3.60583 0.589911C3.74314 0.68863 3.84064 0.826752 3.88281 0.982312L4.51562 3.3125H22.6562C22.771 3.3126 22.8842 3.33594 22.9881 3.38085C23.0919 3.42577 23.1836 3.49117 23.2569 3.57241C23.3301 3.65364 23.383 3.74871 23.4118 3.85087C23.4406 3.95303 23.4445 4.05977 23.4234 4.1635L21.0797 15.6635C21.0462 15.8282 20.9512 15.977 20.8111 16.0841C20.671 16.1911 20.4946 16.2498 20.3125 16.25H6.25C6.06786 16.2498 5.89151 16.1911 5.75142 16.0841C5.61134 15.977 5.51633 15.8282 5.48281 15.6635L3.14062 4.18506L2.51562 1.875H0.78125C0.57405 1.875 0.375336 1.79927 0.228823 1.66448C0.08231 1.52969 0 1.34687 0 1.15625ZM4.84688 4.75L6.89844 14.8125H19.6641L21.7156 4.75H4.84688ZM7.8125 16.25C6.9837 16.25 6.18884 16.5529 5.60279 17.0921C5.01674 17.6312 4.6875 18.3625 4.6875 19.125C4.6875 19.8875 5.01674 20.6188 5.60279 21.1579C6.18884 21.6971 6.9837 22 7.8125 22C8.6413 22 9.43616 21.6971 10.0222 21.1579C10.6083 20.6188 10.9375 19.8875 10.9375 19.125C10.9375 18.3625 10.6083 17.6312 10.0222 17.0921C9.43616 16.5529 8.6413 16.25 7.8125 16.25ZM18.75 16.25C17.9212 16.25 17.1263 16.5529 16.5403 17.0921C15.9542 17.6312 15.625 18.3625 15.625 19.125C15.625 19.8875 15.9542 20.6188 16.5403 21.1579C17.1263 21.6971 17.9212 22 18.75 22C19.5788 22 20.3737 21.6971 20.9597 21.1579C21.5458 20.6188 21.875 19.8875 21.875 19.125C21.875 18.3625 21.5458 17.6312 20.9597 17.0921C20.3737 16.5529 19.5788 16.25 18.75 16.25ZM7.8125 17.6875C8.2269 17.6875 8.62433 17.839 8.91735 18.1085C9.21038 18.3781 9.375 18.7438 9.375 19.125C9.375 19.5062 9.21038 19.8719 8.91735 20.1415C8.62433 20.411 8.2269 20.5625 7.8125 20.5625C7.3981 20.5625 7.00067 20.411 6.70765 20.1415C6.41462 19.8719 6.25 19.5062 6.25 19.125C6.25 18.7438 6.41462 18.3781 6.70765 18.1085C7.00067 17.839 7.3981 17.6875 7.8125 17.6875ZM18.75 17.6875C19.1644 17.6875 19.5618 17.839 19.8549 18.1085C20.1479 18.3781 20.3125 18.7438 20.3125 19.125C20.3125 19.5062 20.1479 19.8719 19.8549 20.1415C19.5618 20.411 19.1644 20.5625 18.75 20.5625C18.3356 20.5625 17.9382 20.411 17.6451 20.1415C17.3521 19.8719 17.1875 19.5062 17.1875 19.125C17.1875 18.7438 17.3521 18.3781 17.6451 18.1085C17.9382 17.839 18.3356 17.6875 18.75 17.6875Z" fill="white"/>
</svg>
