<svg width="38" height="28" viewBox="0 0 38 28" fill="none" xmlns="http://www.w3.org/2000/svg">
<path d="M6.90909 0H38V21H6.90909V0ZM22.4545 5.25C23.8288 5.25 25.1469 5.80312 26.1186 6.78769C27.0904 7.77225 27.6364 9.10761 27.6364 10.5C27.6364 11.8924 27.0904 13.2277 26.1186 14.2123C25.1469 15.1969 23.8288 15.75 22.4545 15.75C21.0802 15.75 19.7622 15.1969 18.7904 14.2123C17.8187 13.2277 17.2727 11.8924 17.2727 10.5C17.2727 9.10761 17.8187 7.77225 18.7904 6.78769C19.7622 5.80312 21.0802 5.25 22.4545 5.25ZM13.8182 3.5C13.8182 4.42826 13.4542 5.3185 12.8064 5.97487C12.1585 6.63125 11.2798 7 10.3636 7V14C11.2798 14 12.1585 14.3687 12.8064 15.0251C13.4542 15.6815 13.8182 16.5717 13.8182 17.5H31.0909C31.0909 16.5717 31.4549 15.6815 32.1027 15.0251C32.7506 14.3687 33.6293 14 34.5455 14V7C33.6293 7 32.7506 6.63125 32.1027 5.97487C31.4549 5.3185 31.0909 4.42826 31.0909 3.5H13.8182ZM0 7H3.45455V24.5H31.0909V28H0V7Z" fill="#2F88FF"/>
</svg>
