<svg width="47" height="16" viewBox="0 0 47 16" fill="none" xmlns="http://www.w3.org/2000/svg">
<path d="M24.3073 5.11501C24.2805 7.34388 26.1915 8.5876 27.631 9.32714C29.1101 10.0858 29.6069 10.5724 29.601 11.251C29.59 12.2893 28.4212 12.7477 27.3276 12.7655C25.4195 12.7966 24.31 12.2224 23.428 11.7881L22.7407 15.1788C23.6256 15.6087 25.2642 15.9835 26.9633 16C30.9519 16 33.5613 13.9244 33.5754 10.7063C33.591 6.62215 28.2167 6.39609 28.2534 4.57057C28.2661 4.01703 28.7671 3.42633 29.865 3.27614C30.4085 3.20027 31.9086 3.14221 33.6094 3.96787L34.277 0.68728C33.3623 0.336188 32.1867 0 30.7231 0C26.969 0 24.3286 2.10384 24.3073 5.11501ZM40.6914 0.282576C39.963 0.282576 39.3493 0.730439 39.0754 1.41772L33.3779 15.759H37.3635L38.1567 13.4483H43.027L43.4871 15.759H47L43.9345 0.282576H40.6914ZM41.2489 4.46335L42.3991 10.2749H39.249L41.2489 4.46335ZM19.4749 0.282769L16.3332 15.7588H20.1312L23.2714 0.282382L19.4749 0.282769ZM13.8564 0.282382L9.90323 10.8165L8.30413 1.85978C8.1165 0.859921 7.37551 0.282576 6.55264 0.282576H0.0905117L0 0.731988C1.32665 1.03547 2.83395 1.52494 3.74715 2.04868C4.30601 2.36861 4.46537 2.64828 4.64896 3.40853L7.67771 15.759H11.6912L17.8446 0.282576L13.8564 0.282382Z" fill="url(#paint0_linear_383_3699)"/>
<defs>
<linearGradient id="paint0_linear_383_3699" x1="21.6078" y1="16.321" x2="22.096" y2="-0.109822" gradientUnits="userSpaceOnUse">
<stop stop-color="#222357"/>
<stop offset="1" stop-color="#254AA5"/>
</linearGradient>
</defs>
</svg>
