<svg width="34" height="34" viewBox="0 0 34 34" fill="none" xmlns="http://www.w3.org/2000/svg">
<path d="M30.8106 8.513H5.05718C4.74959 8.57251 4.43264 8.56328 4.12903 8.48599C3.82542 8.40869 3.54267 8.26524 3.30102 8.0659C3.05938 7.86657 2.86482 7.61628 2.73128 7.33297C2.59774 7.04966 2.52852 6.74033 2.52859 6.42714V6.38679L29.7481 5.32686V2.79919C29.7925 2.42206 29.7506 2.03978 29.6255 1.68122C29.5004 1.32266 29.2955 0.997191 29.0262 0.729397C28.7569 0.461603 28.4302 0.258482 28.0708 0.135374C27.7115 0.012266 27.3288 -0.0276113 26.9518 0.0187537L2.78358 3.9462C1.96791 4.2472 1.26396 4.79058 0.766343 5.50331C0.268729 6.21605 0.00129965 7.06397 0 7.93313L0 30.8139C0 31.6589 0.335804 32.4693 0.933539 33.0668C1.53127 33.6643 2.34198 34 3.1873 34H30.8106C31.6559 34 32.4666 33.6643 33.0643 33.0668C33.6621 32.4693 33.9979 31.6589 33.9979 30.8139V11.6758L34 11.5887C34 10.7718 33.6754 9.98845 33.0976 9.41085C32.5198 8.83325 31.7361 8.50875 30.9189 8.50875L30.8063 8.51088L30.8106 8.513ZM27.6233 23.3817C26.7777 23.3814 25.9668 23.0453 25.3691 22.4474C24.7713 21.8495 24.4357 21.0387 24.436 20.1934C24.4363 19.3481 24.7724 18.5375 25.3706 17.94C25.9687 17.3425 26.7798 17.007 27.6254 17.0073C28.0441 17.0074 28.4587 17.09 28.8455 17.2503C29.2322 17.4106 29.5836 17.6455 29.8796 17.9415C30.1756 18.2376 30.4103 18.589 30.5704 18.9757C30.7305 19.3625 30.8128 19.777 30.8127 20.1955C30.8126 20.6141 30.73 21.0285 30.5696 21.4151C30.4092 21.8018 30.1743 22.153 29.8781 22.4489C29.5819 22.7448 29.2304 22.9794 28.8435 23.1395C28.4566 23.2995 28.042 23.3818 27.6233 23.3817Z" fill="#007AFF"/>
</svg>
