<svg width="16" height="17" viewBox="0 0 16 17" fill="none" xmlns="http://www.w3.org/2000/svg">
<path d="M6 6.375H7V12.75H6V6.375Z" fill="white"/>
<path d="M9 6.375H10V12.75H9V6.375Z" fill="white"/>
<path d="M2 3.1875V4.25H3V14.875C3 15.1568 3.10536 15.427 3.29289 15.6263C3.48043 15.8256 3.73478 15.9375 4 15.9375H12C12.2652 15.9375 12.5196 15.8256 12.7071 15.6263C12.8946 15.427 13 15.1568 13 14.875V4.25H14V3.1875H2ZM4 14.875V4.25H12V14.875H4Z" fill="white"/>
<path d="M6 1.0625H10V2.125H6V1.0625Z" fill="white"/>
</svg>
