<svg width="11" height="13" viewBox="0 0 11 13" fill="none" xmlns="http://www.w3.org/2000/svg">
<path d="M5.5 0C4.04184 0.00159736 2.64389 0.540183 1.61282 1.49761C0.58174 2.45504 0.00172609 3.75313 5.85144e-06 5.10714C-0.00174059 6.21364 0.387496 7.29011 1.108 8.17143C1.108 8.17143 1.258 8.35482 1.2825 8.38129L5.5 13L9.7195 8.37896C9.7415 8.35436 9.892 8.17143 9.892 8.17143L9.8925 8.17004C10.6126 7.28911 11.0017 6.21313 11 5.10714C10.9983 3.75313 10.4183 2.45504 9.38718 1.49761C8.35611 0.540183 6.95816 0.00159736 5.5 0ZM5.5 6.96429C5.10444 6.96429 4.71776 6.85537 4.38886 6.6513C4.05996 6.44724 3.80362 6.15719 3.65224 5.81784C3.50087 5.47849 3.46126 5.10508 3.53843 4.74483C3.6156 4.38458 3.80608 4.05367 4.08579 3.79394C4.36549 3.53422 4.72186 3.35734 5.10982 3.28568C5.49778 3.21403 5.89991 3.2508 6.26537 3.39137C6.63082 3.53193 6.94317 3.76996 7.16294 4.07537C7.3827 4.38078 7.5 4.73983 7.5 5.10714C7.49934 5.5995 7.28841 6.07151 6.91348 6.41966C6.53855 6.76781 6.03023 6.96367 5.5 6.96429Z" fill="#FF4444"/>
</svg>
