<svg width="31" height="29" viewBox="0 0 31 29" fill="none" xmlns="http://www.w3.org/2000/svg">
<path d="M30.7519 7.26574C30.5803 7.02731 30.3405 6.8292 30.0544 6.68965L16.4145 0.195553C16.1336 0.0672088 15.8193 0 15.5 0C15.1806 0 14.8663 0.0672088 14.5855 0.195553L0.945498 6.67655C0.65946 6.81611 0.419595 7.01422 0.247999 7.25264C0.0884235 7.49271 0.00312502 7.76291 0 8.03822V20.9478C0.00177593 21.2268 0.0899935 21.5005 0.255874 21.7417C0.421755 21.9828 0.659516 22.1831 0.945498 22.3226L14.5855 28.8036C14.8502 28.9306 15.149 28.9982 15.4535 29H15.5465C15.8491 28.9876 16.145 28.9206 16.4145 28.8036L30.0544 22.3226C30.3436 22.1863 30.584 21.9867 30.7504 21.7448C30.9168 21.5029 31.003 21.2276 30.9999 20.9478V8.05131C30.9968 7.776 30.9115 7.5058 30.7519 7.26574ZM15.2055 1.11206C15.2959 1.0704 15.397 1.04793 15.5 1.04659C15.6078 1.04832 15.7138 1.07071 15.81 1.11206L29.1244 7.43594L23.1259 10.3164L9.33098 3.90085L15.2055 1.11206ZM15.6395 13.9039L1.891 7.43594L8.05998 4.50313L21.8549 10.9318L15.6395 13.9039ZM1.5655 21.4192C1.46642 21.3757 1.38357 21.3098 1.32611 21.2289C1.26865 21.148 1.23885 21.0553 1.24 20.9609V8.32626L15.0195 14.8073L14.8955 27.7562L1.5655 21.4192ZM29.4499 21.4192L16.1355 27.7431L16.2595 14.8073L22.4749 11.8352V17.7139C22.4749 17.8528 22.5403 17.986 22.6565 18.0842C22.7728 18.1824 22.9305 18.2376 23.0949 18.2376C23.2594 18.2376 23.4171 18.1824 23.5333 18.0842C23.6496 17.986 23.7149 17.8528 23.7149 17.7139V11.2329L29.7599 8.33936V20.9609C29.7609 21.0537 29.7327 21.145 29.6783 21.2255C29.6238 21.306 29.545 21.3728 29.4499 21.4192Z" fill="black"/>
</svg>
