<svg width="16" height="11" viewBox="0 0 16 11" fill="none" xmlns="http://www.w3.org/2000/svg">
<path d="M1.60498 2.58496C2.15727 2.58496 2.60498 2.13725 2.60498 1.58496C2.60498 1.03268 2.15727 0.584961 1.60498 0.584961C1.0527 0.584961 0.60498 1.03268 0.60498 1.58496C0.60498 2.13725 1.0527 2.58496 1.60498 2.58496Z" fill="black"/>
<path d="M1.60498 6.58496C2.15727 6.58496 2.60498 6.13725 2.60498 5.58496C2.60498 5.03268 2.15727 4.58496 1.60498 4.58496C1.0527 4.58496 0.60498 5.03268 0.60498 5.58496C0.60498 6.13725 1.0527 6.58496 1.60498 6.58496Z" fill="black"/>
<path d="M1.60498 10.585C2.15727 10.585 2.60498 10.1372 2.60498 9.58496C2.60498 9.03268 2.15727 8.58496 1.60498 8.58496C1.0527 8.58496 0.60498 9.03268 0.60498 9.58496C0.60498 10.1372 1.0527 10.585 1.60498 10.585Z" fill="black"/>
<path d="M15.21 1.5C15.21 1.36739 15.1573 1.24021 15.0636 1.14645C14.9698 1.05268 14.8426 1 14.71 1H4V2H14.71C14.8426 2 14.9698 1.94732 15.0636 1.85355C15.1573 1.75979 15.21 1.63261 15.21 1.5Z" fill="black"/>
<path d="M14.71 5H4V6H14.71C14.8426 6 14.9698 5.94732 15.0636 5.85355C15.1573 5.75979 15.21 5.63261 15.21 5.5C15.21 5.36739 15.1573 5.24021 15.0636 5.14645C14.9698 5.05268 14.8426 5 14.71 5Z" fill="black"/>
<path d="M14.71 9H4V10H14.71C14.8426 10 14.9698 9.94732 15.0636 9.85355C15.1573 9.75979 15.21 9.63261 15.21 9.5C15.21 9.36739 15.1573 9.24021 15.0636 9.14645C14.9698 9.05268 14.8426 9 14.71 9Z" fill="black"/>
</svg>
