<svg width="15" height="15" viewBox="0 0 15 15" fill="none" xmlns="http://www.w3.org/2000/svg">
<path d="M7.5 9.804L7.742 9.367C7.66792 9.32603 7.58465 9.30453 7.5 9.30453C7.41535 9.30453 7.33208 9.32603 7.258 9.367L7.5 9.804ZM5.337 11L4.843 10.92C4.82782 11.0127 4.83907 11.1078 4.87544 11.1944C4.91181 11.281 4.97184 11.3556 5.04866 11.4097C5.12547 11.4637 5.21596 11.4951 5.30976 11.5001C5.40355 11.5051 5.49686 11.4836 5.579 11.438L5.337 11ZM5.75 8.467L6.243 8.547C6.25557 8.46992 6.2499 8.39096 6.22646 8.31646C6.20301 8.24197 6.16244 8.174 6.108 8.118L5.75 8.468V8.467ZM4 6.674L3.925 6.179C3.83397 6.19271 3.74849 6.23129 3.67799 6.29048C3.60748 6.34968 3.55469 6.42718 3.52542 6.51446C3.49616 6.60175 3.49156 6.69541 3.51213 6.78514C3.53269 6.87487 3.57764 6.95718 3.642 7.023L4 6.673V6.674ZM6.418 6.304L6.494 6.799C6.57516 6.78656 6.65202 6.75433 6.71777 6.70515C6.78352 6.65597 6.83615 6.59135 6.871 6.517L6.418 6.304V6.304ZM7.5 4L7.953 3.788C7.91274 3.70183 7.84873 3.62892 7.7685 3.57785C7.68826 3.52677 7.59512 3.49964 7.5 3.49964C7.40488 3.49964 7.31174 3.52677 7.2315 3.57785C7.15127 3.62892 7.08726 3.70183 7.047 3.788L7.5 4ZM8.582 6.304L8.129 6.517C8.16385 6.59135 8.21648 6.65597 8.28223 6.70515C8.34798 6.75433 8.42484 6.78656 8.506 6.799L8.582 6.304V6.304ZM11 6.674L11.358 7.023C11.4224 6.95718 11.4673 6.87487 11.4879 6.78514C11.5084 6.69541 11.5038 6.60175 11.4746 6.51446C11.4453 6.42718 11.3925 6.34968 11.322 6.29048C11.2515 6.23129 11.166 6.19271 11.075 6.179L11 6.674ZM9.25 8.467L8.892 8.118C8.83741 8.1741 8.79675 8.24224 8.7733 8.31693C8.74986 8.39161 8.74427 8.47076 8.757 8.548L9.25 8.468V8.467ZM9.663 11L9.421 11.438C9.50322 11.4837 9.59664 11.5052 9.69055 11.5002C9.78446 11.4951 9.87504 11.4637 9.9519 11.4095C10.0288 11.3553 10.0888 11.2805 10.125 11.1938C10.1613 11.107 10.1724 11.0118 10.157 10.919L9.663 11ZM7.258 9.367L5.095 10.562L5.579 11.438L7.742 10.242L7.258 9.367V9.367ZM5.83 11.08L6.243 8.548L5.257 8.387L4.843 10.919L5.83 11.081V11.08ZM6.108 8.118L4.358 6.324L3.642 7.023L5.392 8.816L6.108 8.118V8.118ZM4.075 7.168L6.494 6.798L6.343 5.81L3.925 6.18L4.075 7.168V7.168ZM6.871 6.517L7.953 4.212L7.047 3.788L5.966 6.092L6.871 6.517V6.517ZM7.047 4.212L8.13 6.517L9.035 6.092L7.954 3.788L7.048 4.212H7.047ZM8.507 6.8L10.925 7.169L11.075 6.18L8.657 5.811L8.507 6.8ZM10.642 6.325L8.892 8.119L9.608 8.817L11.358 7.024L10.642 6.325ZM8.757 8.548L9.17 11.081L10.157 10.919L9.743 8.387L8.757 8.547V8.548ZM9.905 10.562L7.742 9.367L7.258 10.242L9.421 11.438L9.905 10.562V10.562ZM7.5 14C5.77609 14 4.12279 13.3152 2.90381 12.0962C1.68482 10.8772 1 9.22391 1 7.5H0C0 9.48912 0.790176 11.3968 2.1967 12.8033C3.60322 14.2098 5.51088 15 7.5 15V14ZM14 7.5C14 8.35359 13.8319 9.19883 13.5052 9.98744C13.1786 10.7761 12.6998 11.4926 12.0962 12.0962C11.4926 12.6998 10.7761 13.1786 9.98744 13.5052C9.19883 13.8319 8.35359 14 7.5 14V15C9.48912 15 11.3968 14.2098 12.8033 12.8033C14.2098 11.3968 15 9.48912 15 7.5H14ZM7.5 1C8.35359 1 9.19883 1.16813 9.98744 1.49478C10.7761 1.82144 11.4926 2.30023 12.0962 2.90381C12.6998 3.50739 13.1786 4.22394 13.5052 5.01256C13.8319 5.80117 14 6.64641 14 7.5H15C15 5.51088 14.2098 3.60322 12.8033 2.1967C11.3968 0.790176 9.48912 0 7.5 0V1ZM7.5 0C5.51088 0 3.60322 0.790176 2.1967 2.1967C0.790176 3.60322 0 5.51088 0 7.5H1C1 5.77609 1.68482 4.12279 2.90381 2.90381C4.12279 1.68482 5.77609 1 7.5 1V0Z" fill="black"/>
</svg>
