<svg width="16" height="12" viewBox="0 0 16 12" fill="none" xmlns="http://www.w3.org/2000/svg">
<path d="M0.5 2.5C0.5 1.96957 0.710714 1.46086 1.08579 1.08579C1.46086 0.710714 1.96957 0.5 2.5 0.5H13.5C14.0304 0.5 14.5391 0.710714 14.9142 1.08579C15.2893 1.46086 15.5 1.96957 15.5 2.5V4H0.5V2.5Z" fill="#43C175"/>
<path d="M0.5 5H15.5V9.5C15.5 10.0304 15.2893 10.5391 14.9142 10.9142C14.5391 11.2893 14.0304 11.5 13.5 11.5H2.5C1.96957 11.5 1.46086 11.2893 1.08579 10.9142C0.710714 10.5391 0.5 10.0304 0.5 9.5V5ZM11.5 9C11.3674 9 11.2402 9.05268 11.1464 9.14645C11.0527 9.24021 11 9.36739 11 9.5C11 9.63261 11.0527 9.75979 11.1464 9.85355C11.2402 9.94732 11.3674 10 11.5 10H13.5C13.6326 10 13.7598 9.94732 13.8536 9.85355C13.9473 9.75979 14 9.63261 14 9.5C14 9.36739 13.9473 9.24021 13.8536 9.14645C13.7598 9.05268 13.6326 9 13.5 9H11.5Z" fill="#43C175"/>
</svg>
