<svg width="17" height="12" viewBox="0 0 17 12" fill="none" xmlns="http://www.w3.org/2000/svg">
<path d="M16.575 8.25H16.15V5.71641C16.15 5.41875 16.0145 5.13281 15.7755 4.92188L13.1219 2.58047C12.8828 2.36953 12.5588 2.25 12.2214 2.25H11.05V1.125C11.05 0.503906 10.4789 0 9.775 0H1.275C0.571094 0 0 0.503906 0 1.125V8.625C0 9.24609 0.571094 9.75 1.275 9.75H1.7C1.7 10.9922 2.84219 12 4.25 12C5.65781 12 6.8 10.9922 6.8 9.75H10.2C10.2 10.9922 11.3422 12 12.75 12C14.1578 12 15.3 10.9922 15.3 9.75H16.575C16.8088 9.75 17 9.58125 17 9.375V8.625C17 8.41875 16.8088 8.25 16.575 8.25ZM4.25 10.875C3.54609 10.875 2.975 10.3711 2.975 9.75C2.975 9.12891 3.54609 8.625 4.25 8.625C4.95391 8.625 5.525 9.12891 5.525 9.75C5.525 10.3711 4.95391 10.875 4.25 10.875ZM12.75 10.875C12.0461 10.875 11.475 10.3711 11.475 9.75C11.475 9.12891 12.0461 8.625 12.75 8.625C13.4539 8.625 14.025 9.12891 14.025 9.75C14.025 10.3711 13.4539 10.875 12.75 10.875ZM14.875 6H11.05V3.375H12.2214L14.875 5.71641V6Z" fill="#2263DF"/>
</svg>
